<!DOCTYPE svg PUBLIC "-//W3C//DTD SVG 1.1//EN" "http://www.w3.org/Graphics/SVG/1.1/DTD/svg11.dtd"><svg t="1617960626991" class="icon" viewBox="0 0 1024 1024" version="1.1" xmlns="http://www.w3.org/2000/svg" p-id="1234" xmlns:xlink="http://www.w3.org/1999/xlink" width="200" height="200"><defs><style type="text/css"></style></defs><path d="M260.9 844.2h-76.4c-0.1 0-0.2-0.1-0.2-0.2V575.8c0-0.1 0.1-0.2 0.2-0.2h76.4c0.1 0 0.2 0.1 0.2 0.2V844c0 0.1-0.1 0.2-0.2 0.2zM405.6 844.2h-76.4c-0.1 0-0.2-0.1-0.2-0.2V251c0-0.1 0.1-0.2 0.2-0.2h76.4c0.1 0 0.2 0.1 0.2 0.2v593c-0.1 0.1-0.1 0.2-0.2 0.2zM550.2 844.2h-76.4c-0.1 0-0.2-0.1-0.2-0.2V325.5c0-0.1 0.1-0.2 0.2-0.2h76.4c0.1 0 0.2 0.1 0.2 0.2V844c0 0.1-0.1 0.2-0.2 0.2zM694.8 844.2h-76.4c-0.1 0-0.2-0.1-0.2-0.2V527.1c0-0.1 0.1-0.2 0.2-0.2h76.4c0.1 0 0.2 0.1 0.2 0.2V844c0 0.1-0.1 0.2-0.2 0.2zM839.5 844.2h-76.4c-0.1 0-0.2-0.1-0.2-0.2V673.8c0-0.1 0.1-0.2 0.2-0.2h76.4c0.1 0 0.2 0.1 0.2 0.2V844c0 0.1-0.1 0.2-0.2 0.2z" p-id="1235"></path><path d="M1019.5 918.2l-109.1-85.5c-5.7-3.3-12.8 0.8-12.8 7.4l-0.1 58.6h-773V130.5l55.3-0.1c6.6 0 10.7-7.1 7.4-12.8l-85.5-109c-3.3-5.7-11.5-5.7-14.8 0L1.4 117.7c-3.3 5.7 0.8 12.8 7.4 12.8l54.8 0.1v798.7c0 16.8 13.7 30.5 30.5 30.5h803.5l0.1 51.5c0 6.6 7.1 10.7 12.8 7.4l109.1-85.5c5.6-3.5 5.6-11.7-0.1-15z" p-id="1236"></path></svg>