<!DOCTYPE svg PUBLIC "-//W3C//DTD SVG 1.1//EN" "http://www.w3.org/Graphics/SVG/1.1/DTD/svg11.dtd"><svg t="1615882081206" class="icon" viewBox="0 0 1280 1024" version="1.1" xmlns="http://www.w3.org/2000/svg" p-id="2232" xmlns:xlink="http://www.w3.org/1999/xlink" width="250" height="200"><defs><style type="text/css"></style></defs><path d="M1195.648 154.048h-228.864c-73.472 0-102.4-152.512-178.048-152.512H458.24c-50.88 0-76.352 152.512-152.512 152.512H76.8C34.752 154.048 0.512 188.16 0.512 230.4V891.52c0 42.112 34.24 76.352 76.352 76.352h1118.912c42.112 0 76.352-34.24 76.352-76.352V230.4a76.544 76.544 0 0 0-76.48-76.352z m-559.36 686.72a305.088 305.088 0 0 1-305.28-305.216A305.088 305.088 0 0 1 636.352 230.4a305.088 305.088 0 0 1 305.152 305.152 305.28 305.28 0 0 1-305.216 305.28z m368.768-534.08a38.08 38.08 0 1 1-0.064-76.096 38.08 38.08 0 0 1 0 76.16zM254.72 77.824A25.472 25.472 0 0 0 229.12 52.352H152.832a25.472 25.472 0 0 0-25.472 25.472v25.536h127.168c0.192-0.192 0.192-11.584 0.192-25.536zM636.16 306.688a228.928 228.928 0 0 0 0 457.728 228.928 228.928 0 0 0 0-457.728z" p-id="2233"></path></svg>