<!DOCTYPE svg PUBLIC "-//W3C//DTD SVG 1.1//EN" "http://www.w3.org/Graphics/SVG/1.1/DTD/svg11.dtd"><svg t="1624410742102" class="icon" viewBox="0 0 1024 1024" version="1.1" xmlns="http://www.w3.org/2000/svg" p-id="2174" xmlns:xlink="http://www.w3.org/1999/xlink" width="200" height="200"><defs><style type="text/css"></style></defs><path d="M992.470847 937.063205H503.082031a30.227845 30.227845 0 0 1-30.227845-30.227845V417.144266a30.227845 30.227845 0 0 1 60.455691 0v459.463249h459.463249a30.227845 30.227845 0 0 1 0 60.45569z" p-id="2175"></path><path d="M905.354197 1023.998489a30.227845 30.227845 0 0 1-30.227845-30.227846V534.670128H415.965381a30.227845 30.227845 0 1 1 0-60.45569h489.691095a30.227845 30.227845 0 0 1 30.227845 30.227845v489.32836a30.227845 30.227845 0 0 1-30.530124 30.227846z" p-id="2176"></path><path d="M469.347756 858.470808H31.225366a30.227845 30.227845 0 0 1-30.227846-30.227846V30.227845a30.227845 30.227845 0 0 1 30.227846-30.227845h798.015117a30.227845 30.227845 0 0 1 30.227845 30.227845v434.676416a30.227845 30.227845 0 0 1-60.455691 0V60.455691H61.453211v737.559426h407.894545a30.227845 30.227845 0 0 1 0 60.455691z" p-id="2177"></path></svg>