<!DOCTYPE svg PUBLIC "-//W3C//DTD SVG 1.1//EN" "http://www.w3.org/Graphics/SVG/1.1/DTD/svg11.dtd"><svg t="1611623806663" class="icon" viewBox="0 0 1536 1024" version="1.1" xmlns="http://www.w3.org/2000/svg" p-id="2060" xmlns:xlink="http://www.w3.org/1999/xlink" width="300" height="200"><defs><style type="text/css"></style></defs><path d="M1284.078573 457.429221C1263.306284 185.195201 1020.694719-18.943743 742.243641 1.462837 558.364994 14.847798 396.575189 125.072588 319.995657 288.983507 113.589316 320.361367-27.647625 509.506228 4.607937 711.23149c24.356241 152.793355 143.358054 274.574559 298.272524 305.367285 21.064857 5.119931 42.714849 7.606754 64.364841 7.314186h876.970955C1405.347785 1023.986103 1535.979155 896.353549 1535.979155 738.879115c1.828547-140.651805-108.030534-262.871861-251.900582-281.376753z m-77.530376 75.921255c8.923307 8.777024 21.357424 13.458103 34.010967 12.94611h7.606754c108.761953 0 196.971041 86.161116 196.971041 192.509387 0 106.348271-88.209089 192.582529-196.971041 192.58253H369.293274a203.99266 203.99266 0 0 1-45.49424-5.558782c-154.54876-30.427016-254.533688-177.588447-223.448396-328.699539 25.233943-122.220056 130.338803-213.281677 257.532505-223.082687a47.395928 47.395928 0 0 0 40.0086-29.549313C480.322624 136.775287 719.423379 33.645258 931.827354 114.320734c158.352137 59.976329 262.798719 208.673739 263.456996 374.63263v5.558782c-1.828547 18.504892 1.828547 29.549313 11.336989 38.911472l-0.146284-0.073142z" p-id="2061"></path><path d="M756.067453 606.49234a43.299984 43.299984 0 0 0-58.659775 0l-52.003866 53.686129V411.057279a43.446268 43.446268 0 0 0-20.114012-39.20404 40.520593 40.520593 0 0 0-42.934275 0 43.446268 43.446268 0 0 0-20.187154 39.20404v249.12119l-51.930724-53.686129a43.299984 43.299984 0 0 0-58.659776 0 42.129714 42.129714 0 0 0 0 60.561464l122.658907 126.68171c2.047972 2.194256 4.169086 2.194256 6.290201 4.388511 2.047972 2.194256 4.169086 2.121114 6.217058 4.388512 2.047972 0 4.169086 2.047972 6.2902 2.047973h20.77229c2.121114 0 4.242228-2.121114 6.2902-2.121115a43.1537 43.1537 0 0 0 12.434117-8.557598l122.732049-126.754851a42.129714 42.129714 0 0 0 0-60.561464l0.731419-0.073142z m328.406972-101.886617l-122.585765-128.144546-2.047972-2.194256c-1.97483 0-1.97483-2.121114-4.095945-2.121114-2.194256 0-2.047972-2.194256-4.242228-2.194256-2.121114 0-2.047972-2.121114-4.169086-2.121114-2.194256 0-2.047972 0-4.169086-2.121114h-24.868234c-2.047972 0-2.047972 0-4.169086 2.194255a1.97483 1.97483 0 0 0-1.462838 0.585135 2.194256 2.194256 0 0 0-0.585135 1.462838c-2.047972 0-2.047972 2.194256-4.169086 2.194256l-2.047972 2.194256c-2.047972 0-2.047972 2.121114-4.169086 2.121114l-122.146914 128.144546a44.835963 44.835963 0 0 0 0.511993 60.707748c15.944926 16.676345 41.690863 16.968913 57.928357 0.585135l51.78444-54.636973v251.900581a44.32397 44.32397 0 0 0 13.531245 30.134448 40.228025 40.228025 0 0 0 29.988164 11.190706 42.422281 42.422281 0 0 0 39.350323-41.325154V511.261633l51.78444 54.271263a39.204039 39.204039 0 0 0 29.256746 13.31182 39.204039 39.204039 0 0 0 29.256746-13.31182A41.544579 41.544579 0 0 0 1097.127968 535.398448a41.837146 41.837146 0 0 0-12.214692-31.085292l-0.365709 0.292567z" p-id="2062"></path></svg>