<!DOCTYPE svg PUBLIC "-//W3C//DTD SVG 1.1//EN" "http://www.w3.org/Graphics/SVG/1.1/DTD/svg11.dtd"><svg t="1666187254919" class="icon" viewBox="0 0 1024 1024" version="1.1" xmlns="http://www.w3.org/2000/svg" p-id="2178" xmlns:xlink="http://www.w3.org/1999/xlink" width="200" height="200"><path d="M981.257623 22.385197c0-31.229801-29.480591-23.422351-38.397296-14.207a296.768436 296.768436 0 0 1-162.932527 78.757121 199.793931 199.793931 0 0 1-45.607455 4.948985 346.642257 346.642257 0 0 1-133.323945-34.13093A498.311577 498.311577 0 0 0 407.346036 13.767137a210.03321 210.03321 0 0 0-21.033186 0.725282 532.442507 532.442507 0 0 0-220.315152 72.528227q-24.403615 12.372462-49.105876 24.104969l-4.906321-12.073817-0.682619-0.725282a35.666822 35.666822 0 0 0-46.930028-19.155984 34.94154 34.94154 0 0 0-18.942666 19.838603 37.714678 37.714678 0 0 0 0 27.646053l365.542259 875.330362a35.240185 35.240185 0 0 0 32.979011 21.971786 31.10181 31.10181 0 0 0 14.036345-2.815801 36.34944 36.34944 0 0 0 18.942666-47.52732l-124.876539-299.328256a201.927114 201.927114 0 0 1 120.695501-91.513556 268.141118 268.141118 0 0 1 68.773823-9.215351 619.049742 619.049742 0 0 1 141.003405 21.971786 619.689697 619.689697 0 0 0 133.323945 20.563885 203.50567 203.50567 0 0 0 162.121917-73.04019 35.794813 35.794813 0 0 0 3.49842-11.348534V22.385197z m0 0" p-id="2179"></path></svg>