<!DOCTYPE svg PUBLIC "-//W3C//DTD SVG 1.1//EN" "http://www.w3.org/Graphics/SVG/1.1/DTD/svg11.dtd"><svg t="1649489616701" class="icon" viewBox="0 0 1024 1024" version="1.1" xmlns="http://www.w3.org/2000/svg" p-id="3118" data-spm-anchor-id="a313x.7781069.0.i0" xmlns:xlink="http://www.w3.org/1999/xlink" width="200" height="200"><defs><style type="text/css"></style></defs><path d="M968.6016 477.696l19.7632-11.3664V176.2304l-0.3072-5.7344c-2.9696-30.3104-28.672-53.5552-59.2896-53.5552H94.9248l-5.7344 0.3072c-30.5152 2.9696-53.8624 28.4672-53.8624 58.9824v290.0992l19.7632 11.3664 3.9936 2.56c10.6496 7.9872 16.6912 20.6848 15.9744 34.0992-0.7168 13.2096-8.2944 25.1904-19.7632 31.9488l-19.7632 11.3664v290.0992l0.3072 5.7344c2.9696 30.3104 28.672 53.5552 59.2896 53.5552h834.048l5.7344-0.3072c30.5152-2.9696 53.8624-28.4672 53.8624-58.9824V557.568l-19.7632-11.3664-3.9936-2.56c-10.6496-7.9872-16.6912-20.6848-15.9744-34.0992 0.4096-13.1072 7.9872-25.088 19.5584-31.8464z m-54.4768 67.6864h-27.0336c6.4512 19.2512 18.1248 36.352 34.2016 49.4592v245.1456H102.2976V594.8416c16.0768-12.8 27.7504-30.1056 34.2016-49.4592h-26.8288c-18.5344 0-33.4848-14.9504-33.4848-33.4848s14.9504-33.4848 33.4848-33.4848h26.8288c-6.4512-19.2512-18.1248-36.352-34.2016-49.4592V183.9104h818.9952V429.056c-16.0768 12.8-27.7504 30.1056-34.2016 49.4592h26.9312c18.5344 0 33.4848 14.9504 33.4848 33.4848 0.3072 18.432-14.848 33.3824-33.3824 33.3824z" p-id="3119"></path><path d="M191.3856 511.8976c0-18.5344-14.9504-33.4848-33.4848-33.4848h-48.0256c-18.5344 0-33.4848 14.9504-33.4848 33.4848s14.9504 33.4848 33.4848 33.4848H158.1056c18.3296 0 33.28-14.9504 33.28-33.4848zM914.1248 478.4128H866.0992c-18.5344 0-33.4848 14.9504-33.4848 33.4848s14.9504 33.4848 33.4848 33.4848h48.0256c18.5344 0 33.4848-14.9504 33.4848-33.4848 0.2048-18.5344-14.9504-33.4848-33.4848-33.4848zM350.4128 281.6c-48.7424 0-86.9376 20.2752-113.4592 60.0064-25.6 38.6048-38.6048 95.744-38.6048 169.984s13.0048 131.4816 38.6048 170.2912c26.5216 40.0384 64.4096 60.3136 112.5376 60.3136s86.9376-20.48 115.6096-61.0304c27.9552-39.424 42.0864-96.3584 42.0864-168.96 0-72.704-13.9264-129.6384-41.3696-169.2672-28.3648-40.6528-67.072-61.3376-115.4048-61.3376z m66.1504 355.1232c-15.6672 27.5456-37.0688 40.8576-65.024 40.8576-58.5728 0-86.9376-53.8624-86.9376-164.5568 0-54.6816 8.0896-96.8704 24.064-125.1328 15.1552-26.9312 35.6352-39.936 62.6688-39.936s48.128 13.1072 64.512 40.1408c16.9984 28.2624 25.6 69.9392 25.6 123.8016-0.1024 54.0672-8.3968 96.0512-24.8832 124.8256zM668.7744 281.6c-48.7424 0-86.9376 20.2752-113.4592 60.0064-25.6 38.6048-38.6048 95.744-38.6048 169.984s13.0048 131.4816 38.6048 170.2912c26.5216 40.0384 64.4096 60.3136 112.5376 60.3136s86.9376-20.48 115.6096-61.0304c27.9552-39.424 42.0864-96.3584 42.0864-168.96 0-72.704-13.9264-129.6384-41.3696-169.2672-28.2624-40.6528-67.072-61.3376-115.4048-61.3376z m66.1504 355.1232c-15.6672 27.5456-37.0688 40.8576-65.024 40.8576-58.5728 0-86.9376-53.8624-86.9376-164.5568 0-54.6816 8.0896-96.8704 24.064-125.1328 15.1552-26.9312 35.6352-39.936 62.6688-39.936s48.128 13.1072 64.512 40.1408c16.9984 28.2624 25.6 69.9392 25.6 123.8016 0 54.0672-8.3968 96.0512-24.8832 124.8256z" p-id="3120" data-spm-anchor-id="a313x.7781069.0.i1" class="selected"></path></svg>