<!DOCTYPE svg PUBLIC "-//W3C//DTD SVG 1.1//EN" "http://www.w3.org/Graphics/SVG/1.1/DTD/svg11.dtd"><svg t="1611794816244" class="icon" viewBox="0 0 1024 1024" version="1.1" xmlns="http://www.w3.org/2000/svg" p-id="2714" xmlns:xlink="http://www.w3.org/1999/xlink" width="200" height="200"><defs><style type="text/css"></style></defs><path d="M184.78836328 839.31284469c42.29475015 43.10200191 91.77404095 76.62077226 146.84852995 100.5573594C389.09225072 963.81412991 448.95468618 976.5865301 511.20532878 976.5865301h428.56681249c13.57126492 0 24.74279053-11.97143872 24.74279053-25.54270364 0-13.5628779-11.17257399-25.53641336-24.74279053-25.53641335H721.0970758c43.09361488-22.34619635 82.99806114-51.07806862 117.31779295-86.99448153 42.30313718-43.09361488 75.82190754-93.37386714 98.96696863-149.23883385 23.93658715-58.26260925 36.70689059-118.91552242 36.70689057-182.75865255 0-63.84837205-12.77030344-124.50128521-36.70689057-182.76599123-23.14506108-55.86391831-56.66487981-106.14312221-98.96696863-149.23673711-42.29475015-43.09571163-91.7761377-76.61448198-146.85062669-100.55945616C634.10888455 50.00933488 574.24749748 37.23903143 511.99580649 37.23903143c-62.24330396 0-122.90355577 12.77030344-179.56843558 36.71422925-55.06715035 23.94497418-104.54539276 57.46374453-146.84014291 100.55945616-42.30313718 43.09361488-75.82190754 93.37386714-98.96696861 149.23673711-23.93658715 58.26470601-36.70898735 118.91761917-36.70898734 182.76599123 0 63.84313017 12.77240018 124.49604333 36.70898734 182.75865255 22.34619635 56.66487981 55.07239225 106.94513208 98.16810389 150.03874696z m325.61810078-9.57484454c-61.45177788 0-110.93316544-51.07806862-110.93316543-112.53089488 0-62.25064261 50.27920389-112.53089488 110.93316545-112.53089487 60.65291316 0 110.93106868 50.27920389 110.93106866 112.53089487S571.85824194 829.73800015 510.40646406 829.73800015z m205.90371366-434.15991393c61.45177788 0 110.93106868 50.27815551 110.93106866 112.53089487 0 62.25064261-49.47824241 112.52879812-110.93106866 112.52879814-61.45177788 0-110.93316544-50.27815551-110.93316543-112.52879814 0-62.25378774 49.48138754-112.53089488 110.93316543-112.53089487zM510.40646406 187.28302027c60.65291316 0 110.93106868 49.48033917 110.93106868 111.73203017 0 62.25064261-50.27815551 112.53089488-110.93106866 112.53089487s-110.93316544-49.48662945-110.93316545-111.73936879c0-62.24435234 50.28025226-112.52355624 110.93316545-112.52355625zM305.2932281 395.57808622c60.66130019 0 110.94050408 50.27815551 110.94050408 112.53089487 0 62.25064261-50.27920389 112.52879812-110.94050406 112.52879814-61.45177788 0-110.93106868-50.27815551-110.93106869-112.52879814 0-62.25378774 50.27815551-112.53089488 110.93106869-112.53089487z m2e-8 0" p-id="2715"></path></svg>