<!DOCTYPE svg PUBLIC "-//W3C//DTD SVG 1.1//EN" "http://www.w3.org/Graphics/SVG/1.1/DTD/svg11.dtd"><svg t="1649864820650" class="icon" viewBox="0 0 1024 1024" version="1.1" xmlns="http://www.w3.org/2000/svg" p-id="2984" xmlns:xlink="http://www.w3.org/1999/xlink" width="200" height="200"><defs><style type="text/css"></style></defs><path d="M0 0h1024v1024H0z" fill="#FFFFFF" p-id="2985"></path><path d="M880.9 63.9H141.2c-44.9 0-81.6 36.7-81.6 81.6v739.8c0 44.9 36.7 81.6 81.6 81.6H881c44.9 0 81.6-36.7 81.6-81.6V145.5c-0.1-44.8-36.8-81.6-81.7-81.6z" fill="#834FDC" p-id="2986"></path><path d="M242.8 422.9h85.6l18.5-23.1 34.7 30.1-20.8 16.2v210.4l74-78.6 6.9 4.6c-21.6 33.9-39.3 60.9-53.2 80.9-13.9 20.1-24.7 39.3-32.4 57.8l-34.7-34.7c7.7-7.7 10.8-17.7 9.2-30.1V436.8h-23.1c-12.4 0-27 2.3-43.9 6.9l-20.8-20.8z m57.8-166.4l6.9-4.6c24.6 15.4 42.8 28.9 54.3 40.5s15.8 23.5 12.7 35.8c-3.1 12.4-9.2 21.6-18.5 27.7-9.2 6.2-15.4-1.5-18.5-23.1-4.5-20.1-16.8-45.5-36.9-76.3zM420.9 275h233.5l20.8-23.1 39.3 37-23.1 9.2c-37 49.4-66.3 84.8-87.9 106.4 44.7 27.7 103.3 43.2 175.7 46.2v9.2c-23.1 3.1-37 13.9-41.6 32.4-55.5-13.9-108.7-37-159.5-69.4-58.6 43.2-123.3 72.5-194.2 87.9l-2.3-6.9c69.4-24.6 127.2-57.8 173.4-99.4-33.9-35.4-60.9-74-80.9-115.6-7.7 0-18.5 2.3-32.4 6.9L420.9 275z m143.3 504c1.5-50.9 2.3-99.4 2.3-145.7h-69.4c-18.5 0-36.2 2.3-53.2 6.9l-20.8-20.8h143.4v-78.6h-53.2c-12.4 0-27 2.3-43.9 6.9L448.6 527h117.9c0-35.4-0.8-60.9-2.3-76.3l53.2 23.1-18.5 18.5V527H666l30.1-27.7 39.3 41.6H598.9v78.6h106.4l32.4-30.1 39.3 43.9H599c0 57 0.8 100.2 2.3 129.5L564.2 779z m-78.6-490.2c21.6 33.9 52.4 66.3 92.5 97.1 30.8-30.8 56.3-63.2 76.3-97.1H485.6z" fill="#FFFFFF" p-id="2987"></path><path d="M511.1 889.2c-50.4 0-99.4-9.9-145.5-29.4-44.5-18.8-84.5-45.8-118.8-80.1s-61.3-74.3-80.1-118.8c-19.5-46.1-29.4-95-29.4-145.5 0-50.4 9.9-99.4 29.4-145.5 18.8-44.5 45.8-84.5 80.1-118.8s74.3-61.3 118.8-80.1c46.1-19.5 95-29.4 145.5-29.4 50.4 0 99.4 9.9 145.5 29.4 44.5 18.8 84.5 45.8 118.8 80.1s61.3 74.3 80.1 118.8c19.5 46.1 29.4 95 29.4 145.5 0 50.4-9.9 99.4-29.4 145.5-18.8 44.5-45.8 84.5-80.1 118.8C741 814 701 841 656.5 859.8c-46.1 19.5-95 29.4-145.4 29.4z m0-727.5c-195 0-353.7 158.7-353.7 353.7S316 869.2 511.1 869.2c195 0 353.7-158.7 353.7-353.7S706.1 161.7 511.1 161.7z" fill="#FFFFFF" p-id="2988"></path></svg>