<!DOCTYPE svg PUBLIC "-//W3C//DTD SVG 1.1//EN" "http://www.w3.org/Graphics/SVG/1.1/DTD/svg11.dtd"><svg t="1690470525395" class="icon" viewBox="0 0 1024 1024" version="1.1" xmlns="http://www.w3.org/2000/svg" p-id="1484" xmlns:xlink="http://www.w3.org/1999/xlink" width="200" height="200"><path d="M999.68 420.48c-14.72-7.68-32.64-6.4-46.72 3.2l-183.04 129.28V492.8c0-42.24-34.56-76.8-76.8-76.8H583.04c104.96-10.88 186.88-99.2 186.88-207.36 0-115.2-93.44-208.64-208-208.64S353.92 93.44 353.92 208c0 107.52 81.92 196.48 186.88 207.36H200.32C282.88 401.92 345.6 330.88 345.6 244.48c0-95.36-77.44-172.8-172.8-172.8S0 149.12 0 244.48c0 85.76 63.36 157.44 145.28 170.88H76.8c-42.24 0-76.8 34.56-76.8 76.8V947.2c0 42.24 34.56 76.8 76.8 76.8h616.96c42.24 0 76.8-34.56 76.8-76.8v-57.6l183.68 126.72c7.68 5.12 16.64 7.68 25.6 7.68 7.04 0 14.08-1.92 21.12-5.12 14.72-7.68 23.68-23.04 23.68-39.68V460.16c-0.64-16.64-10.24-32-24.96-39.68zM443.52 208c0-65.28 53.12-118.4 118.4-118.4s118.4 53.12 118.4 118.4S627.2 327.04 561.92 327.04s-118.4-53.76-118.4-119.04zM89.6 244.48c0-46.08 37.12-83.2 83.2-83.2s83.2 37.12 83.2 83.2-37.12 83.2-83.2 83.2-83.2-37.12-83.2-83.2zM680.96 934.4H89.6V504.96h591.36V934.4z m253.44-40.32L770.56 780.8v-118.4L934.4 546.56v347.52z" p-id="1485"></path></svg>