<?xml version="1.0" standalone="no"?><!DOCTYPE svg PUBLIC "-//W3C//DTD SVG 1.1//EN" "http://www.w3.org/Graphics/SVG/1.1/DTD/svg11.dtd"><svg t="1657551729998" class="icon" viewBox="0 0 1024 1024" version="1.1" xmlns="http://www.w3.org/2000/svg" p-id="5667" xmlns:xlink="http://www.w3.org/1999/xlink" width="200" height="200"><defs><style type="text/css"></style></defs><path d="M64 938.666667a64 64 0 0 1-63.701333-57.856L0 874.666667v-725.333334a64 64 0 0 1 57.856-63.701333L64 85.333333h896a64 64 0 0 1 63.701333 57.856L1024 149.333333v725.333334a64 64 0 0 1-57.856 63.701333L960 938.666667h-896zM256 426.666667H85.333333v426.666666h170.666667V426.666667z m682.666667 0H341.333333v426.666666h597.333334V426.666667z m0-256H85.333333v170.666666h853.333334V170.666667z" p-id="5668"></path></svg>