<?xml version="1.0" standalone="no"?><!DOCTYPE svg PUBLIC "-//W3C//DTD SVG 1.1//EN" "http://www.w3.org/Graphics/SVG/1.1/DTD/svg11.dtd"><svg t="1626762506942" class="icon" viewBox="0 0 1024 1024" version="1.1" xmlns="http://www.w3.org/2000/svg" p-id="4975" xmlns:xlink="http://www.w3.org/1999/xlink" width="200" height="200"><defs><style type="text/css"></style></defs><path d="M854.013267 0.001792A170.751402 170.751402 0 0 1 1023.996672 170.753194v682.493612A170.751402 170.751402 0 0 1 854.013267 1023.998208H171.263657A170.495403 170.495403 0 0 1 0.000256 853.246806V170.753194A170.495403 170.495403 0 0 1 171.263657 0.001792zM363.006985 835.070869a15.615945 15.615945 0 0 0-15.615945 15.615946v13.823951a15.359946 15.359946 0 0 0 4.863983 11.263961 14.847948 14.847948 0 0 0 11.51996 4.351985l82.68771-3.839987c27.903902 0 51.199821-1.535995 68.095762-1.535995 25.59991 0 70.143754 1.535995 136.959521 4.607984h22.015923a15.615945 15.615945 0 0 0 15.615945-15.615945v-14.079951a15.615945 15.615945 0 0 0-15.615945-15.615945h-2.303992a143.103499 143.103499 0 0 1-45.82384-5.63198 42.495851 42.495851 0 0 1-24.063916-18.431936 127.999552 127.999552 0 0 1-9.727966-40.191859C588.798195 752.639158 588.798195 721.407267 588.798195 676.351425v-95.487666c0-46.591837 0-108.031622 2.559991-329.214848a15.615945 15.615945 0 0 1 15.615946-15.615945h74.23974c51.199821 0 87.039695 7.167975 104.703633 21.759924a153.599462 153.599462 0 0 1 31.48789 70.399753 15.871944 15.871944 0 0 0 17.663938 11.263961l16.895941-2.559991a15.615945 15.615945 0 0 0 13.055954-17.407939 1800.953697 1800.953697 0 0 1-7.935972-75.007738 981.500565 981.500565 0 0 1-3.327988-82.431711 12.543956 12.543956 0 0 0-4.863983-8.447971 12.287957 12.287957 0 0 0-10.495963-2.559991 236.799171 236.799171 0 0 1-39.167863 6.143979c-25.59991 2.047993-68.351761 2.81599-131.071542 2.81599h-307.198924c-55.807805 0-95.487666 0-119.039584-2.81599a278.527025 278.527025 0 0 1-36.863871-5.375981 15.103947 15.103947 0 0 0-12.799955 2.81599 16.639942 16.639942 0 0 0-6.143978 11.519959c-2.047993 31.231891-4.351985 55.551806-6.655977 72.703746s-7.423974 45.311841-14.847948 81.407715a15.871944 15.871944 0 0 0 14.591949 17.663938l18.687934 3.839987a15.615945 15.615945 0 0 0 18.175937-10.495963 161.535435 161.535435 0 0 1 35.327876-72.703746c19.711931-15.103947 56.319803-22.527921 109.823616-22.527921h71.935748a15.871944 15.871944 0 0 1 11.007961 4.607984 15.359946 15.359946 0 0 1 4.607984 11.007961v276.223033c0 99.327652 0 167.423414-2.047993 204.799284a291.838979 291.838979 0 0 1-7.167974 69.375757 45.311841 45.311841 0 0 1-23.295919 25.59991 126.463557 126.463557 0 0 1-51.199821 7.423974z m0 0" p-id="4976"></path></svg>