<svg t="1663509506797" class="icon" viewBox="0 0 1024 1024" version="1.1" xmlns="http://www.w3.org/2000/svg" p-id="6271" width="200" height="200"><path d="M683.48928 423.28064a10.24 10.24 0 0 1 0.06144 13.53728l-0.91136 0.9216L610.59072 501.76H819.2a10.24 10.24 0 0 1 1.19808 20.40832L819.2 522.24H610.59072l72.04864 64.03072a10.24 10.24 0 0 1 1.64864 13.43488l-0.79872 1.024a10.24 10.24 0 0 1-13.43488 1.6384l-1.024-0.79872-92.16-81.92-0.1536-0.13312-0.6144-0.6144 0.768 0.74752a10.36288 10.36288 0 0 1-2.58048-3.54304 10.28096 10.28096 0 0 1 1.66912-10.84416l0.14336-0.1536c0.19456-0.21504 0.39936-0.43008 0.6144-0.62464l0.1536-0.13312 92.16-81.92a10.24 10.24 0 0 1 14.45888 0.84992z m-330.61888-2.29376l1.0752 0.64512 1.024 0.79872 92.13952 81.92 0.1536 0.13312 0.6144 0.6144-0.768-0.74752a10.36288 10.36288 0 0 1 2.58048 3.54304 10.28096 10.28096 0 0 1-1.66912 10.84416l-0.14336 0.1536c-0.19456 0.21504-0.39936 0.43008-0.6144 0.62464l-0.1536 0.13312-92.14976 81.92a10.24 10.24 0 0 1-14.51008-14.3872l0.91136-0.9216L413.36832 522.24H204.8a10.24 10.24 0 0 1-1.19808-20.40832L204.8 501.76h208.56832l-72.00768-64.03072a10.24 10.24 0 0 1-1.6384-13.43488l0.78848-1.024a10.24 10.24 0 0 1 12.35968-2.28352z" p-id="6272"></path></svg>