<?xml version="1.0" standalone="no"?><!DOCTYPE svg PUBLIC "-//W3C//DTD SVG 1.1//EN" "http://www.w3.org/Graphics/SVG/1.1/DTD/svg11.dtd"><svg t="1635064108247" class="icon" viewBox="0 0 1024 1024" version="1.1" xmlns="http://www.w3.org/2000/svg" p-id="3351" xmlns:xlink="http://www.w3.org/1999/xlink" width="200" height="200"><defs><style type="text/css"></style></defs><path d="M450.77 510.35a15.77 15.77 0 0 1-11-27l163.87-161.09a61.19 61.19 0 0 0 18.21-46.9L618.79 218a57.61 57.61 0 0 1 14.15-42.18l53.67-60.89c0.23-0.26 0.47-0.52 0.72-0.77a34.4 34.4 0 0 1 57.9 17.37l13.07 62.37a2.87 2.87 0 0 0 2.19 2.21l62.27 13.54a34.4 34.4 0 0 1 16.91 58L779.82 327a34.33 34.33 0 0 1-27.21 9.86l-42.32-3.69a15.77 15.77 0 0 1 2.71-31.38l42.31 3.69a2.9 2.9 0 0 0 2.27-0.82l59.85-59.39a2.86 2.86 0 0 0-1.41-4.83l-62.26-13.55a34.44 34.44 0 0 1-26.36-26.56L714.36 138a2.86 2.86 0 0 0-4.58-1.65l-53.18 60.3a25.87 25.87 0 0 0-6.35 19v0.4l3.07 57.58a92.8 92.8 0 0 1-27.6 71.07l-163.9 161.13a15.7 15.7 0 0 1-11.05 4.52z" fill="#191007" p-id="3352"></path><path d="M387.7 763.47a15.74 15.74 0 0 1-3.83-0.47 278.42 278.42 0 0 1-150-97 277 277 0 0 1 217.26-448.76 277.84 277.84 0 0 1 126.48 30.5 15.77 15.77 0 1 1-14.42 28.05 242.8 242.8 0 0 0-112.06-27 245.46 245.46 0 0 0-192.55 397.66 246.72 246.72 0 0 0 132.93 85.95 15.77 15.77 0 0 1-3.81 31.07zM451.17 771.23a15.77 15.77 0 0 1 0-31.54A245.53 245.53 0 0 0 666.58 376.5a15.77 15.77 0 0 1 27.67-15.15 277 277 0 0 1-243.08 409.88z" fill="#191007" p-id="3353"></path><path d="M451.15 675.78a181.53 181.53 0 0 1-181.54-181.53c0-100.1 81.42-181.55 181.52-181.56A181.48 181.48 0 0 1 541.88 337a10.51 10.51 0 1 1-10.53 18.2 160.38 160.38 0 0 0-80.2-21.44c-88.51 0-160.51 72-160.51 160.53a160.52 160.52 0 0 0 160.52 160.5c88.51 0 160.51-72 160.51-160.53a160.5 160.5 0 0 0-22.15-81.4 10.51 10.51 0 0 1 18.11-10.68 181.41 181.41 0 0 1 25.06 92.08c0 100.1-81.42 181.55-181.52 181.56z" fill="#191007" p-id="3354"></path><path d="M451.15 588.05a93.81 93.81 0 0 1 0-187.62 94 94 0 0 1 28.07 4.27 10.51 10.51 0 0 1-6.28 20.07 72.77 72.77 0 0 0-21.79-3.32 72.79 72.79 0 0 0 0 145.57 72.86 72.86 0 0 0 70.24-91.89 10.52 10.52 0 0 1 20.3-5.5 94.25 94.25 0 0 1 3.26 24.6 93.82 93.82 0 0 1-93.8 93.82z" fill="#191007" p-id="3355"></path><path d="M451.15 494.24m-33.18 0a33.18 33.18 0 1 0 66.36 0 33.18 33.18 0 1 0-66.36 0Z" fill="#191007" p-id="3356"></path><path d="M451.15 527.94a33.71 33.71 0 0 1 0-67.41 33.71 33.71 0 0 1 0 67.41z m0-66.36a32.66 32.66 0 1 0 0 65.31 32.66 32.66 0 0 0 0-65.31zM292.28 919.85a15.77 15.77 0 0 1-13.45-24l95.09-156.09a15.77 15.77 0 1 1 26.93 16.41l-95.08 156.12a15.78 15.78 0 0 1-13.49 7.56zM610.09 919.83a15.78 15.78 0 0 1-13.37-7.38l-93.47-148.6a15.77 15.77 0 1 1 26.69-16.79l93.48 148.6a15.78 15.78 0 0 1-13.33 24.17z" fill="#191007" p-id="3357"></path></svg>