<?xml version="1.0" standalone="no"?><!DOCTYPE svg PUBLIC "-//W3C//DTD SVG 1.1//EN" "http://www.w3.org/Graphics/SVG/1.1/DTD/svg11.dtd"><svg t="1615944271495" class="icon" viewBox="0 0 1024 1024" version="1.1" xmlns="http://www.w3.org/2000/svg" p-id="2136" xmlns:xlink="http://www.w3.org/1999/xlink" width="200" height="200"><defs><style type="text/css"></style></defs><path d="M987.417626 185.4208h-182.8608V74.0864A73.216 73.216 0 0 0 731.392026 0.9472H292.505626a73.216 73.216 0 0 0-73.1648 73.1392v111.3344H36.480026A36.5312 36.5312 0 0 0 0.000026 221.9776v692.6592a36.5312 36.5312 0 0 0 36.5824 36.5824h950.8352A36.5568 36.5568 0 0 0 1024.000026 914.6368V221.9776a36.5312 36.5312 0 0 0-36.5824-36.5568zM292.505626 74.0864H731.392026v110.8736H292.505626zM950.860826 878.08H73.036826V568.32H394.240026v68.5568a36.5312 36.5312 0 0 0 36.5824 36.5824h162.304A36.5312 36.5312 0 0 0 629.760026 636.8768V568.32h321.1008zM467.379226 600.32v-137.1648h89.1392v137.1648z m483.4816-105.1648H629.760026v-68.5824a36.5312 36.5312 0 0 0-36.5824-36.5568h-162.304A36.5312 36.5312 0 0 0 394.240026 426.5728v68.5824H73.036826V258.56h877.824z m0 0" p-id="2137"></path></svg>