<?xml version="1.0" standalone="no"?><!DOCTYPE svg PUBLIC "-//W3C//DTD SVG 1.1//EN" "http://www.w3.org/Graphics/SVG/1.1/DTD/svg11.dtd"><svg t="1612314519337" class="icon" viewBox="0 0 1024 1024" version="1.1" xmlns="http://www.w3.org/2000/svg" p-id="2067" xmlns:xlink="http://www.w3.org/1999/xlink" width="200" height="200"><defs><style type="text/css"></style></defs><path d="M969 179.01c-115.93 6.76-176.03 74.58-218.97 171.07-37.76 74.9-97.43 211.65-189.69 201.54-121.68-4.04-222.2-250.87-347.75-159.11-86.47 62.74-54.43 242.62-75.55 357.33 0 1.36-0.65 2.02-0.65 3.35v118.1H969V179.01z" fill="#999999" opacity=".6" p-id="2068"></path><path d="M969 232.04c-115.93 6.76-165.86 218.6-208.81 315.08-37.76 74.9-83.89 137.64-176.14 127.53-121.68-4.04-170.97-279.33-296.52-187.56-86.47 62.74-129.38 201.08-150.5 315.77 0 1.36-0.65 2.02-0.65 3.35v118.1H969V232.04z" fill="#999999" p-id="2069"></path><path d="M950.38 922.98H106.15V87.75C106.15 65.89 88.26 48 66.4 48c-5.42 0-10.6 1.1-15.32 3.09-13.16 2.96-23.33 16.94-24.34 34.11-0.02 0.25-0.03 0.5-0.05 0.75-0.01 0.29-0.02 0.58-0.02 0.88-0.01 0.31-0.02 0.61-0.02 0.92v872.73c0 20.34 13.56 37.52 29.62 37.52h894.1c16.34 0 29.62-16.83 29.62-37.52 0.01-20.33-13.56-37.5-29.61-37.5z" fill="#999999" opacity=".6" p-id="2070"></path></svg>