<?xml version="1.0" standalone="no"?><!DOCTYPE svg PUBLIC "-//W3C//DTD SVG 1.1//EN" "http://www.w3.org/Graphics/SVG/1.1/DTD/svg11.dtd"><svg t="1616985169992" class="icon" viewBox="0 0 1024 1024" version="1.1" xmlns="http://www.w3.org/2000/svg" p-id="2141" xmlns:xlink="http://www.w3.org/1999/xlink" width="200" height="200"><defs><style type="text/css"></style></defs><path d="M512 0a512 512 0 1 0 512 512A512 512 0 0 0 512 0z m0 68.266667a443.733333 443.733333 0 0 1 443.733333 409.6c-229.034667 5.12-197.290667 107.861333-359.424 107.861333C453.632 586.069333 341.333333 443.733333 170.666667 443.733333a245.76 245.76 0 0 0-98.645334 22.528A443.733333 443.733333 0 0 1 512 68.266667z" p-id="2142"></path><path d="M320.512 366.933333a70.997333 70.997333 0 0 1-51.2-23.552l-21.504 29.354667a106.154667 106.154667 0 0 0 78.506667 31.744 78.506667 78.506667 0 0 0 81.237333-81.578667A68.266667 68.266667 0 0 0 336.213333 249.173333a58.709333 58.709333 0 0 0-29.013333 6.826667l4.437333-49.493333h84.309334V167.936H273.066667l-6.144 112.64 20.821333 13.994667a55.637333 55.637333 0 0 1 34.133333-12.288 37.546667 37.546667 0 0 1 39.594667 41.984 38.912 38.912 0 0 1-40.96 42.666666zM507.904 404.48c46.762667 0 78.165333-41.301333 78.165333-121.514667s-31.402667-119.466667-78.165333-119.466666-78.848 39.253333-78.848 119.466666 31.402667 121.514667 78.848 121.514667z m0-204.8c19.456 0 34.133333 18.773333 34.133333 83.626667s-15.36 85.674667-34.133333 85.674666-34.133333-20.138667-34.133333-85.674666 13.994667-83.968 34.133333-83.968zM675.157333 403.797333l105.472-200.704h-22.869333l-105.130667 200.704h22.528zM646.144 325.632c27.648 0 47.445333-22.869333 47.445333-61.781333S673.792 204.8 646.144 204.8s-47.104 22.186667-47.104 60.757333 19.456 60.074667 47.104 60.074667z m0-102.4c11.264 0 20.138667 10.922667 20.138667 39.253333s-8.874667 39.936-20.138667 39.936-19.797333-11.264-19.797333-39.936 8.533333-37.888 19.797333-37.888zM739.669333 341.333333c0 38.912 19.797333 61.781333 47.104 61.781334s47.445333-22.869333 47.445334-61.781334-20.138667-61.098667-47.445334-61.098666-47.104 22.869333-47.104 61.098666z m47.104-39.253333c11.264 0 20.138667 10.922667 20.138667 39.253333s-8.874667 39.936-20.138667 39.936-20.138667-11.264-20.138666-39.936 8.874667-38.570667 20.138666-38.570666z" p-id="2143"></path></svg>