<?xml version="1.0" standalone="no"?><!DOCTYPE svg PUBLIC "-//W3C//DTD SVG 1.1//EN" "http://www.w3.org/Graphics/SVG/1.1/DTD/svg11.dtd"><svg t="1617960685994" class="icon" viewBox="0 0 1024 1024" version="1.1" xmlns="http://www.w3.org/2000/svg" p-id="2322" xmlns:xlink="http://www.w3.org/1999/xlink" width="200" height="200"><defs><style type="text/css"></style></defs><path d="M864 896a32 32 0 0 1-32-32V544a32 32 0 0 1 64 0v320a32 32 0 0 1-32 32z" fill="#C0C5D3" p-id="2323"></path><path d="M864 640a32 32 0 0 1-32-32V160a32 32 0 0 1 64 0v448a32 32 0 0 1-32 32z" fill="#9BA1B5" p-id="2324"></path><path d="M512 896a32 32 0 0 1-32-32V416a32 32 0 0 1 64 0v448a32 32 0 0 1-32 32z" fill="#C0C5D3" p-id="2325"></path><path d="M512 512a32 32 0 0 1-32-32V160a32 32 0 0 1 64 0v320a32 32 0 0 1-32 32z" fill="#9BA1B5" p-id="2326"></path><path d="M160 896a32 32 0 0 1-32-32V320a32 32 0 0 1 64 0v544a32 32 0 0 1-32 32z" fill="#C0C5D3" p-id="2327"></path><path d="M160 384a32 32 0 0 1-32-32V160a32 32 0 0 1 64 0v192a32 32 0 0 1-32 32z" fill="#9BA1B5" p-id="2328"></path></svg>