<?xml version="1.0" standalone="no"?><!DOCTYPE svg PUBLIC "-//W3C//DTD SVG 1.1//EN" "http://www.w3.org/Graphics/SVG/1.1/DTD/svg11.dtd"><svg t="1611545121158" class="icon" viewBox="0 0 1024 1024" version="1.1" xmlns="http://www.w3.org/2000/svg" p-id="7731" xmlns:xlink="http://www.w3.org/1999/xlink" width="200" height="200"><defs><style type="text/css"></style></defs><path d="M510.439491 550.47372a49.844819 49.844819 0 0 1-22.554781-5.420624L44.390432 319.692208A49.844819 49.844819 0 0 1 44.390432 230.532288L487.88471 5.420624A49.844819 49.844819 0 0 1 532.246599 5.046788L969.510274 218.071083a49.844819 49.844819 0 0 1 1.993793 88.599166L534.240392 544.430036a49.844819 49.844819 0 0 1-23.800901 6.043684zM177.102263 275.268013l332.527249 169.036243 329.22503-179.067513-327.916603-159.690339z" p-id="7732"></path><path d="M516.670093 1023.999502a49.844819 49.844819 0 0 1-49.844819-49.84482l-1.121508-430.846154a49.844819 49.844819 0 0 1 24.050125-42.741933l443.431971-269.03741a49.844819 49.844819 0 0 1 75.701819 43.614216l-6.915968 409.225965a49.844819 49.844819 0 0 1-34.268313 46.542599l-1.183815 0.809979L544.707804 1015.588188a50.218655 50.218655 0 0 1-28.037711 8.411314z m48.847923-452.840182l0.747672 309.536327 336.452529-226.420091 4.922176-290.657601z" p-id="7733"></path><path d="M510.439491 1023.999502a49.844819 49.844819 0 0 1-26.542366-7.663641L46.633449 741.441684a49.844819 49.844819 0 0 1-23.240147-41.246588L15.106601 278.258702a49.844819 49.844819 0 0 1 75.203371-43.614216l455.893176 268.72588a49.844819 49.844819 0 0 1 24.486268 44.112665l-10.405106 427.917772a49.844819 49.844819 0 0 1-49.844819 48.598699zM122.522186 671.035877l340.253196 214.208109 7.539029-310.907058-353.773603-208.787486z" p-id="7734"></path></svg>