<?xml version="1.0" standalone="no"?><!DOCTYPE svg PUBLIC "-//W3C//DTD SVG 1.1//EN" "http://www.w3.org/Graphics/SVG/1.1/DTD/svg11.dtd"><svg t="1611544453439" class="icon" viewBox="0 0 1024 1024" version="1.1" xmlns="http://www.w3.org/2000/svg" p-id="5003" xmlns:xlink="http://www.w3.org/1999/xlink" width="200" height="200"><defs><style type="text/css"></style></defs><path d="M885.76 720.896l7.168-0.512c9.216-0.512 17.408-5.632 20.992-13.824l4.096-8.192 30.72 24.576-2.56 5.12c-9.728 19.456-29.696 32.256-51.712 33.28l-7.168 0.512-1.536-40.96z m-85.504 41.472v-41.984h57.856v41.984h-57.856z m-87.04 0v-41.984h57.856v41.984h-57.856z m-86.528 0v-41.984h57.856v41.984h-57.856z m-87.04 0v-41.984h57.856v41.984h-57.856z m374.272-79.872V624.64h41.984v57.856h-41.984z m0-87.04V537.6h41.984v57.856h-41.984z m-651.264-81.92V455.68h41.984v57.856h-41.984z m651.264-5.12V450.56h41.984v57.856h-41.984zM262.656 427.008V369.152h41.984v57.856h-41.984z m651.264-5.12V363.52h41.984v57.856h-41.984z m-651.264-81.92V282.112h41.984v57.856h-41.984z m651.264-5.12V276.992h41.984v57.856h-41.984zM262.656 253.44V220.16c0-8.704 1.536-16.896 5.12-24.576l2.56-6.144 39.424 13.312-3.072 7.168c-1.536 3.072-2.048 6.656-2.048 10.24v32.768h-41.984z m651.264-5.632V220.16c0-4.608-1.024-8.704-3.584-12.8l-4.096-7.168 6.656-3.072h-72.192v-41.984h79.36V194.56l24.064-10.752 3.072 5.632c5.632 9.216 8.192 19.968 8.192 30.72v27.648h-41.472zM311.808 157.696l7.68-1.024v-0.512h57.856v41.984H323.584l-7.68 1.024-4.096-41.472z m442.368 39.936v-41.984h57.856v41.984h-57.856z m-87.04 0v-41.984h57.856v41.984h-57.856z m-87.04 0v-41.984h57.856v41.984h-57.856z m-86.528 0v-41.984h57.856v41.984H493.568z m-87.04 0v-41.984h57.856v41.984H406.528z" p-id="5004"></path><path d="M327.168 190.464v-27.136h43.52v27.136h-43.52z m86.528 0v-27.136h43.52v27.136h-43.52z m87.04 0v-27.136h43.52v27.136h-43.52z m87.04 0v-27.136h43.52v27.136h-43.52z m86.528 0v-27.136h43.52v27.136h-43.52z m87.04 0v-27.136h43.52v27.136h-43.52z m87.04 0v-27.136h65.024v27.136h-65.024z m68.608 13.312l24.576-10.752c4.608 8.192 7.168 17.408 7.168 27.136v20.48H921.6v-20.48c0-5.632-2.048-11.264-4.608-16.384z m4.608 80.384h27.136V327.68H921.6v-43.52z m0 87.04h27.136V414.72H921.6v-43.52z m0 86.528h27.136v43.52H921.6v-43.52z m0 87.04h27.136v43.52H921.6v-43.52z m0 86.528h27.136v43.52H921.6v-43.52z m-1.024 78.848l19.456 15.36c-8.704 17.408-26.112 28.672-45.568 29.184l-1.024-27.136c11.264-0.512 22.016-7.168 27.136-17.408z m-69.632 17.408v27.136h-43.52v-27.136h43.52z m-87.04 0v27.136h-43.52v-27.136h43.52z m-87.04 0v27.136h-43.52v-27.136h43.52z m-86.528 0v27.136h-43.52v-27.136h43.52zM297.472 506.368h-27.136v-43.52h27.136v43.52z m0-86.528h-27.136v-43.52h27.136V419.84z m0-87.04h-27.136v-43.52h27.136V332.8z m0-87.04h-27.136v-25.6c0-7.68 1.536-14.848 4.608-21.504l25.6 8.704c-2.048 4.096-2.56 8.192-2.56 12.8l-0.512 25.6zM322.56 190.976l-2.56-27.136c2.048-0.512 4.608-0.512 6.656-0.512v27.136c-1.024 0-2.56 0-4.096 0.512zM625.152 487.936l12.288-11.264 97.28-87.552 44.544 49.152 0.512 0.512H797.184l1.024-1.024V435.2l0.512-0.512V433.152v-0.512-2.56l24.576-137.216v-0.512c0-3.072-1.024-6.656-3.072-8.704s-5.12-4.096-8.704-4.096h-0.512l-138.752 10.24c-3.584 0-6.656 1.024-9.216 3.584-2.56 2.048-4.096 5.12-4.096 8.704 0 3.072 1.024 6.656 3.072 9.216l45.056 49.664-112.128 102.4c-5.12 6.656-5.632 16.384-1.024 23.552l1.536 2.048c10.24 6.656 22.016 6.144 29.696-1.024z" p-id="5005"></path><path d="M511.488 513.536H120.832c-28.672 0-43.52 14.336-43.52 43.52v260.608c0 28.672 14.336 43.52 43.52 43.52h390.656c28.672 0 43.52-14.336 43.52-43.52v-260.608c0-29.184-14.336-43.52-43.52-43.52z" p-id="5006"></path></svg>