<?xml version="1.0" standalone="no"?><!DOCTYPE svg PUBLIC "-//W3C//DTD SVG 1.1//EN" "http://www.w3.org/Graphics/SVG/1.1/DTD/svg11.dtd"><svg t="1611796174825" class="icon" viewBox="0 0 1509 1024" version="1.1" xmlns="http://www.w3.org/2000/svg" p-id="6029" xmlns:xlink="http://www.w3.org/1999/xlink" width="294.7265625" height="200"><defs><style type="text/css"></style></defs><path d="M517.2075766601563 323.58644140624995c0-97.05732714843751 78.96198779296876-176.01820048828125 176.01820048828125-176.01820136718752 97.05732714843751 0 176.01820048828125 78.96087333984376 176.01820136718752 176.01820136718752 0 61.21979912109376-31.423704785156254 115.23176367187499-78.98092646484375 146.7768990234375v23.548561523437503c59.109808007812504-33.8077494140625 99.03363310546875-97.48957412109374 99.03363310546875-170.32546054687498 0-108.11416640624999-87.95674072265625-196.07090712890624-196.0709080078125-196.07090712890624s-196.07090712890624 87.95674072265625-196.07090712890624 196.07090712890624c0 74.29527773437499 41.5369529296875 139.07108935546876 102.607470703125 172.3273892578125v-23.23997314453125c-49.55135185546875-31.176388476562494-82.55476406250001-86.34584003906251-82.55476406250001-149.08741611328122zM952.6844041015624 581.2013331054687c-0.6918187499999999-27.71395400390625-14.238535253906251-41.11027646484375-25.481419628906252-47.468098828125-11.80658759765625-6.67755087890625-23.232174609375-6.869165625-24.4954951171875-6.869165625H790.2630520507812v20.052706640625H902.6317346679688c0.0757546875 0 7.839493945312499 0.17156162109375 15.292416796875 4.61546455078125 9.403605175781252 5.60473154296875 14.35662333984375 15.758085058593752 14.71534453125 30.170410839843747 1.02046025390625 40.7994591796875 0.15039492187499998 122.16999990234373 0.01559619140625 134.07907939453125l-37.32254296875 119.67232412109377H689.5171408203125c-7.216745800781251-15.183240820312502-28.14620185546875-56.048428125-60.17482968750001-92.40844130859375-37.2512443359375-42.29004375-71.91011953125-58.36563017578125-77.64185126953124-60.83434160156251-3.57049599609375-2.16680625-27.739577636718753-17.56951259765625-33.338738671875-40.21013232421875-2.8497120117187498-11.519165917968751-0.49351904296875-23.00713857421875 7.20003515625-35.117859374999995 11.971466015625-18.845087695312497 30.8633431640625-28.399088671875003 56.15314892578125-28.399088671875003 6.2419623046875 0 12.3435544921875 0.5893268554687501 18.04743544921875 1.4905845703125v-20.269944140625c-5.74287275390625-0.7809416015625-11.812158105468749-1.2733470703125-18.04743544921875-1.27334619140625-32.142260742187496 0-57.410898925781254 13.0353732421875-73.07986113281248 37.6990875-10.66692568359375 16.79079990234375-13.934402929687499 33.88907373046875-9.708851953125 50.81467236328125 8.170363476562502 32.72935869140625 41.87673544921875 52.15263310546875 43.30716152343751 52.964767968749996l0.58152919921875 0.32418544921875 0.5926684570312499 0.24397470703125c0.33866806640625 0.13925478515625 34.34917236328125 14.343255175781252 70.88520322265624 55.82339208984374 37.243445800781245 42.278903613281244 59.381634375 92.672469140625 59.598871875 93.172672265625l2.620219921875 6.033636914062501h233.57058222656252l42.586378417968746-136.55447490234374 0.01782509765625-1.4638473632812499c0.0133681640625-0.92019638671875 1.10512705078125-92.05306259765625-0.00222802734375-136.28821904296873z" p-id="6030"></path><path d="M759.9600705078126 507.95659443359375a194.59146357421875 194.59146357421875 0 0 1-20.052706640625 6.0715142578125v32.8875521484375h50.35568818359375v-20.052706640625h-30.30298154296875v-18.906359765625zM633.2670713867187 589.4652763671876l14.175035156249999 6.44248828125v-19.844380371093752l2.2369904296875003-61.28775527343751a194.51348085937502 194.51348085937502 0 0 1-19.859977441406247-5.6459513671875l-2.0776833984375003 56.935204101562505c-7.31366806640625-2.3305702148437497-17.04591474609375-4.88060595703125-27.9768673828125-6.364506445312499v20.269944140625c18.8740529296875 2.9845107421874997 33.3242560546875 9.41363173828125 33.50250263671875 9.494956933593748zM653.0056182617188 423.6227096679687l0.01336904296875-0.36986132812500006-0.01336904296875-0.37097490234374997c-0.0044560546875-0.104719921875-0.16264951171875-10.75047890625 8.063416406250001-19.2996158203125 7.34040439453125-7.627826953125 19.3007302734375-11.50356884765625 35.6425716796875-11.519165917968751 41.35090869140625 0 43.13002939453125 26.0941412109375 43.195757519531256 28.965020800781247v72.28109443359375a174.82617861328126 174.82617861328126 0 0 0 20.052706640625-6.856911914062501V421.0325685546875c0-1.314566015625-0.23060654296874997-13.190225097656251-8.39205791015625-25.150550097656247-7.43064169921875-10.889733691406251-22.977059765625-23.8716333984375-54.85640625-23.8716333984375h-0.11474648437500001c-21.90089794921875 0.021166699218749998-38.71620615234375 5.96456630859375-49.97691474609375 17.66643486328125-13.06656650390625 13.57679619140625-13.67148955078125 30.252849609374998-13.6625765625 33.44011611328125l-2.3706755859375 64.95851425781251a174.35271181640624 174.35271181640624 0 0 0 19.837696289062496 6.2553304687499995l2.58122900390625-70.70807109375z" p-id="6031"></path><path d="M630.5878065429687 488.07545029296875l-0.7686870117187501 21.05422734375a194.59480517578126 194.59480517578126 0 0 0 19.859977441406247 5.6459513671875l0.74640673828125-20.4448482421875a174.28252763671878 174.28252763671878 0 0 1-19.83769716796875-6.2553304687499995zM739.9073638671875 514.0281086914063a194.31629560546872 194.31629560546872 0 0 0 20.052706640625-6.0715142578125v-21.5042994140625a174.82617861328126 174.82617861328126 0 0 1-20.052706640625 6.856911914062501v20.718901757812496z" p-id="6032"></path></svg>